<svg width="20" height="13" viewBox="0 0 20 13" fill="none" xmlns="http://www.w3.org/2000/svg">
<path d="M19.1341 5.593H2.95615L6.81615 1.548C6.97912 1.37415 7.06981 1.14479 7.06981 0.9065C7.06981 0.668209 6.97912 0.438851 6.81615 0.265C6.73776 0.181192 6.64299 0.114378 6.53771 0.0686992C6.43244 0.0230205 6.3189 -0.000549316 6.20415 -0.000549316C6.08939 -0.000549316 5.97586 0.0230205 5.87058 0.0686992C5.76531 0.114378 5.67054 0.181192 5.59215 0.265L0.254148 5.859C0.0911804 6.03285 0.000488281 6.26221 0.000488281 6.5005C0.000488281 6.73879 0.0911804 6.96815 0.254148 7.142L5.59215 12.735C5.67054 12.8188 5.76531 12.8856 5.87058 12.9313C5.97586 12.977 6.08939 13.0005 6.20415 13.0005C6.3189 13.0005 6.43244 12.977 6.53771 12.9313C6.64299 12.8856 6.73776 12.8188 6.81615 12.735C6.97934 12.5613 7.07018 12.3319 7.07018 12.0935C7.07018 11.8551 6.97934 11.6257 6.81615 11.452L2.95615 7.407H19.1341C19.3673 7.39605 19.5873 7.29571 19.7485 7.12681C19.9096 6.95791 19.9995 6.73344 19.9995 6.5C19.9995 6.26656 19.9096 6.04209 19.7485 5.87319C19.5873 5.70429 19.3673 5.60395 19.1341 5.593Z" fill="#B5873A"/>
</svg>
