<svg width="18" height="18" viewBox="0 0 18 18" fill="none" xmlns="http://www.w3.org/2000/svg">
<path d="M15.034 9.701C15.7525 9.71075 16.438 10.0038 16.9416 10.5163C17.4452 11.0289 17.726 11.7195 17.723 12.438V15.116C17.726 15.8354 17.4455 16.527 16.9422 17.0409C16.4389 17.5549 15.7533 17.8499 15.034 17.862H12.412C11.6934 17.8502 11.0085 17.555 10.5064 17.0407C10.0043 16.5265 9.72566 15.8347 9.73103 15.116V12.438C9.72383 11.7196 10.0022 11.0277 10.5049 10.5145C11.0077 10.0013 11.6936 9.70865 12.412 9.701H15.034ZM3.76603 9.701C3.90189 9.68661 4.03905 9.71123 4.16142 9.77198C4.2838 9.83273 4.38634 9.92708 4.45703 10.044C4.52913 10.162 4.56728 10.2977 4.56728 10.436C4.56728 10.5743 4.52913 10.71 4.45703 10.828C4.38634 10.9449 4.2838 11.0393 4.16142 11.1C4.03905 11.1608 3.90189 11.1854 3.76603 11.171H2.68903C2.35545 11.1744 2.03678 11.3097 1.80258 11.5473C1.56838 11.7848 1.43769 12.1054 1.43903 12.439V15.084C1.44403 15.4156 1.57679 15.7326 1.80964 15.9688C2.04249 16.205 2.35749 16.3423 2.68903 16.352H5.32903C5.4935 16.3529 5.65649 16.3208 5.80834 16.2576C5.96019 16.1944 6.0978 16.1014 6.21303 15.984C6.44884 15.7439 6.58068 15.4206 6.58003 15.084V11.112L6.56903 11.012C6.5625 10.8825 6.58998 10.7535 6.64875 10.6379C6.70752 10.5223 6.79553 10.4241 6.90403 10.353C7.02547 10.2742 7.16806 10.2342 7.31278 10.2385C7.45749 10.2428 7.59747 10.2911 7.71403 10.377C7.83192 10.4644 7.92145 10.5847 7.97142 10.7227C8.0214 10.8607 8.02961 11.0104 7.99503 11.153V15.108C8.00249 15.8287 7.7234 16.5229 7.21914 17.0378C6.71487 17.5528 6.02672 17.8464 5.30603 17.854H2.68903C1.97313 17.8316 1.2936 17.5333 0.792474 17.0216C0.291349 16.5098 0.00741736 15.8242 2.75655e-05 15.108V12.438C-0.0011599 11.7137 0.281767 11.0179 0.788028 10.5C1.03536 10.2467 1.33087 10.0454 1.65718 9.90798C1.98348 9.77059 2.33398 9.69987 2.68803 9.7L3.76603 9.701ZM15.034 11.171H12.412C12.2472 11.1727 12.0844 11.2068 11.9327 11.2715C11.7811 11.3361 11.6437 11.43 11.5284 11.5478C11.4131 11.6655 11.3221 11.8048 11.2606 11.9577C11.1991 12.1107 11.1683 12.2742 11.17 12.439V15.117C11.1669 15.4529 11.2967 15.7764 11.531 16.017C11.6455 16.1346 11.7826 16.2278 11.9339 16.2912C12.0853 16.3546 12.2479 16.3869 12.412 16.386H15.036C15.2001 16.3869 15.3627 16.3546 15.5141 16.2912C15.6655 16.2278 15.8025 16.1346 15.917 16.017C16.1514 15.7764 16.2811 15.4529 16.278 15.117V12.438C16.2795 12.1019 16.1487 11.7786 15.914 11.538C15.7992 11.4213 15.6622 11.3287 15.5111 11.2657C15.3599 11.2027 15.1978 11.1705 15.034 11.171ZM15.034 0.139C15.7477 0.164166 16.4241 0.463356 16.9229 0.974385C17.4216 1.48541 17.7042 2.16898 17.712 2.883V5.553C17.7218 6.27597 17.4483 6.97407 16.95 7.498C16.7064 7.75414 16.4141 7.95906 16.0902 8.10073C15.7664 8.2424 15.4175 8.31796 15.064 8.323H13.982C13.804 8.29927 13.6407 8.21172 13.5224 8.07662C13.4042 7.94152 13.339 7.76806 13.339 7.5885C13.339 7.40894 13.4042 7.23548 13.5224 7.10039C13.6407 6.96529 13.804 6.87773 13.982 6.854H15.035C15.2007 6.85261 15.3643 6.818 15.5164 6.75221C15.6684 6.68642 15.8056 6.5908 15.92 6.471C16.1537 6.22619 16.2819 5.8994 16.277 5.561V2.883C16.2761 2.55147 16.1457 2.23341 15.9137 1.99657C15.6818 1.75973 15.3665 1.62282 15.035 1.615H12.412C12.2472 1.6167 12.0844 1.65084 11.9327 1.71549C11.7811 1.78013 11.6437 1.87401 11.5284 1.99175C11.4131 2.1095 11.3221 2.24881 11.2606 2.40173C11.1991 2.55465 11.1683 2.71819 11.17 2.883V6.883L11.16 6.983C11.1326 7.15673 11.0439 7.31491 10.91 7.42898C10.7762 7.54305 10.6059 7.60548 10.43 7.605C10.3356 7.60205 10.2428 7.58028 10.1569 7.54095C10.0711 7.50163 9.99392 7.44555 9.93003 7.376C9.79817 7.23286 9.7281 7.04349 9.73503 6.849V2.883C9.73011 2.15926 10.0091 1.46243 10.512 0.942001C10.7594 0.688663 11.0549 0.487372 11.3812 0.34998C11.7075 0.212589 12.058 0.141874 12.412 0.142L15.034 0.139ZM5.31203 0.138C6.03205 0.147492 6.71907 0.441489 7.22308 0.955795C7.72708 1.4701 8.00711 2.16293 8.00203 2.883V5.562C8.00268 6.28654 7.71902 6.9824 7.21203 7.5C6.9647 7.75334 6.66918 7.95463 6.34288 8.09202C6.01657 8.22941 5.66608 8.30013 5.31203 8.3H2.68903C1.9704 8.29025 1.28469 7.99711 0.781102 7.48434C0.277515 6.97158 -0.00320229 6.28069 2.75655e-05 5.562V2.883C-0.0027037 2.1638 0.27796 1.47247 0.781244 0.958709C1.28453 0.444943 1.96993 0.150092 2.68903 0.138H5.31203ZM5.31203 1.616H2.68903C2.52329 1.61288 2.35864 1.64334 2.205 1.70556C2.05135 1.76777 1.9119 1.86045 1.79503 1.978C1.55616 2.21856 1.42239 2.54399 1.42303 2.883V5.562C1.41946 5.73215 1.44982 5.90131 1.51231 6.0596C1.57481 6.2179 1.66819 6.36217 1.78703 6.484C1.90387 6.60387 2.04397 6.69861 2.19873 6.76241C2.35349 6.8262 2.51965 6.85771 2.68703 6.855H5.31203C5.47774 6.85348 5.64145 6.81871 5.79347 6.75275C5.94549 6.68679 6.08272 6.59098 6.19703 6.471C6.43071 6.22619 6.55891 5.8994 6.55403 5.561V2.883C6.55513 2.55095 6.42541 2.23182 6.19296 1.99469C5.96052 1.75757 5.64404 1.62152 5.31203 1.616Z" fill="#8D9295"/>
</svg>
