<svg width="33" height="33" viewBox="0 0 33 33" fill="none" xmlns="http://www.w3.org/2000/svg">
<path d="M23.5641 0.000130626H8.27216H6.64038C6.64038 0.000130626 6.64045 15.9248 13.2652 19.6106C14.0461 20.0449 14.5204 20.8784 14.5204 21.772H15.684H17.9221C17.9221 20.8784 18.3964 20.045 19.1773 19.6106C19.8952 19.2112 20.5352 18.6679 21.1058 18.0169C24.4622 14.1886 25.4198 6.63002 25.6931 2.62835C25.8021 1.03093 25.8022 0 25.8022 0H23.5641V0.000130626Z" fill="#FECE00"/>
<path d="M0.00116542 5.8879C0.0724103 -0.184176 6.74886 2.62853 6.74886 2.62853C6.79072 3.24087 6.84864 3.9366 6.92864 4.68934C5.17207 4.05689 1.42012 3.12561 1.94691 6.96023C2.48148 10.8518 4.17875 13.5422 6.43834 14.9931C7.69646 15.8009 9.08681 15.9152 9.8899 15.8991C10.3142 16.6819 10.7937 17.3984 11.3361 18.0171V18.0172C11.3361 18.0172 8.49681 18.5462 5.66817 16.8441C3.03413 15.2589 -0.068904 11.8557 0.00116542 5.8879Z" fill="#EEBF00"/>
<path d="M17.9221 24.0505H14.5205V27.0669H17.9221V24.0505Z" fill="#FECE00"/>
<path d="M17.9228 24.0505H14.4644V25.2332H17.9228V24.0505Z" fill="#DDB201"/>
<path d="M23.2598 29.2417H9.18262V32.4386H23.2598V29.2417Z" fill="#3E3D43"/>
<path d="M23.2598 31.2073H9.18262V32.4379H23.2598V31.2073Z" fill="#444444"/>
<path d="M20.6091 27.0664H11.8337V29.241H20.6091V27.0664Z" fill="#77767E"/>
<path d="M20.6091 28.1543H11.8337V29.2416H20.6091V28.1543Z" fill="#3E3D43"/>
<path d="M17.9783 24.0504H14.4637C13.8345 24.0504 13.3245 23.5404 13.3245 22.9112C13.3245 22.282 13.8345 21.772 14.4637 21.772H17.9783C18.6075 21.772 19.1175 22.282 19.1175 22.9112C19.1175 23.5404 18.6075 24.0504 17.9783 24.0504Z" fill="#CBA400"/>
<path d="M23.5637 0C23.5637 0 23.5636 1.03093 23.4545 2.62835C23.1813 6.63002 22.2237 14.1886 18.8673 18.0169C18.2965 18.6679 17.6566 19.2112 16.9388 19.6106C16.1579 20.0449 15.6836 20.8784 15.6836 21.772H17.9217C17.9217 20.8784 18.396 20.045 19.1769 19.6106C19.8947 19.2112 20.5347 18.6679 21.1054 18.0169C24.4617 14.1886 25.4194 6.63002 25.6926 2.62835C25.8017 1.03093 25.8018 0 25.8018 0H23.5637Z" fill="#DDB201"/>
<path d="M14.897 19.6104C8.27222 15.9246 8.27216 0 8.27216 0H6.64038C6.64038 0 6.64045 15.9246 13.2652 19.6104C14.0461 20.0448 14.5204 20.8783 14.5204 21.7719H15.684C15.684 21.4011 15.7668 21.0413 15.9181 20.7155C15.7047 20.2559 15.3539 19.8646 14.897 19.6104Z" fill="#FEDA44"/>
<path d="M32.4404 5.8879C32.3691 -0.184176 25.6927 2.62853 25.6927 2.62853C25.6508 3.24087 25.5929 3.9366 25.5129 4.68934C27.2695 4.05682 31.0214 3.12554 30.4946 6.96016C29.9601 10.8517 28.2628 13.5421 26.0032 14.993C24.7451 15.8009 23.3547 15.9151 22.5517 15.899C22.1273 16.6818 21.6479 17.3984 21.1055 18.017V18.0171C21.1055 18.0171 23.9447 18.5462 26.7734 16.844C29.4075 15.2589 32.5105 11.8557 32.4404 5.8879Z" fill="#EEBF00"/>
<path d="M5.60029 4.29533C6.09293 4.40804 6.55579 4.5555 6.92867 4.68976C6.84867 3.93702 6.79075 3.24122 6.74889 2.62894C6.74889 2.62894 6.09228 2.35278 5.18921 2.1604C5.35168 2.86749 5.50566 3.57661 5.60029 4.29533Z" fill="#CBA400"/>
<path d="M9.89017 15.8992C9.48484 15.9074 8.92971 15.882 8.31763 15.7512C8.37751 15.916 8.43791 16.0811 8.50126 16.2452C8.79225 16.8678 9.1484 17.4707 9.5109 18.0647C10.6029 18.1536 11.3363 18.0173 11.3363 18.0173V18.0173C10.794 17.3985 10.3145 16.682 9.89017 15.8992Z" fill="#CBA400"/>
<path d="M26.8416 4.29484C26.3489 4.40755 25.8861 4.55501 25.5132 4.68927C25.5932 3.93653 25.6511 3.24073 25.693 2.62846C25.693 2.62846 26.3496 2.35229 27.2526 2.15991C27.0902 2.86701 26.9363 3.57612 26.8416 4.29484Z" fill="#CBA400"/>
<path d="M22.5518 15.8992C22.9572 15.9074 23.5123 15.882 24.1244 15.7512C24.0645 15.916 24.0041 16.0811 23.9407 16.2452C23.6498 16.8678 23.2936 17.4707 22.9311 18.0647C21.8391 18.1536 21.1057 18.0173 21.1057 18.0173V18.0173C21.648 17.3985 22.1274 16.682 22.5518 15.8992Z" fill="#CBA400"/>
<path d="M12.1399 17.2889C11.8228 16.9485 11.5186 16.558 11.2354 16.1281L12.0646 15.5818C12.3174 15.9656 12.5872 16.3121 12.8665 16.6121L12.1399 17.2889Z" fill="white"/>
<path d="M10.8542 15.5048C10.0767 14.1362 9.44116 12.3839 8.96484 10.2965L9.93302 10.0757C10.3877 12.0685 10.9881 13.73 11.7177 15.0142L10.8542 15.5048Z" fill="white"/>
<path d="M27.6371 22.1197L27.6353 19.4497L26.6422 19.4504L26.644 22.1203L27.6371 22.1197Z" fill="black"/>
<path d="M28.4765 21.2804L28.4758 20.2874L25.8059 20.2891L25.8065 21.2821L28.4765 21.2804Z" fill="black"/>
<path d="M6.15858 24.718H5.16553V27.1179H6.15858V24.718Z" fill="black"/>
<path d="M6.86251 25.4209H4.46265V26.414H6.86251V25.4209Z" fill="black"/>
<path d="M3.62963 18.3196H2.69287V19.3126H3.62963V18.3196Z" fill="black"/>
<path d="M9.65039 21.2573H8.71362V22.2504H9.65039V21.2573Z" fill="black"/>
<path d="M24.749 24.2451H23.8123V25.2382H24.749V24.2451Z" fill="black"/>
</svg>
