<svg width="12" height="12" viewBox="0 0 12 12" fill="none" xmlns="http://www.w3.org/2000/svg">
<path d="M11.6612 0.34919C11.3611 0.0411589 10.9169 -0.0735977 10.5028 0.0471987L0.844798 2.85571C0.407819 2.97711 0.0980923 3.32561 0.0146581 3.76833C-0.0705768 4.2189 0.227145 4.79087 0.616104 5.03005L3.63594 6.88609C3.94567 7.07634 4.34543 7.02863 4.60174 6.77012L8.05975 3.29058C8.23382 3.10939 8.52194 3.10939 8.69601 3.29058C8.87008 3.46574 8.87008 3.74961 8.69601 3.9308L5.23199 7.41095C4.97509 7.66885 4.92707 8.07049 5.11615 8.38215L6.9613 11.4323C7.17739 11.7946 7.54954 12 7.95771 12C8.00573 12 8.05975 12 8.10777 11.994C8.57596 11.9336 8.94812 11.6135 9.08617 11.1605L11.9493 1.51487C12.0754 1.10417 11.9613 0.65722 11.6612 0.34919Z" fill="white"/>
</svg>
