<svg width="31" height="35" viewBox="0 0 31 35" fill="none" xmlns="http://www.w3.org/2000/svg">
<path d="M18.5407 0H23.279L22.8068 2.03047L25.7192 0H30.4567L20.9815 14.2133H16.2432L17.0644 12.1828L13.8029 14.2133H9.06543L18.5407 0Z" fill="#B50000"/>
<path d="M23.2793 0H25.7195L16.2435 14.2133H13.8032L23.2793 0Z" fill="#FF9F00"/>
<path d="M21.4011 14.2133H16.6498L15.2285 13.3199L13.4011 12.1828L14.2133 14.2133H9.48212L0 0H4.73115L7.65497 2.03047L7.1878 0H11.919L15.2285 4.95429L21.4011 14.2133Z" fill="#B50000"/>
<path d="M16.6499 14.2133H14.2133L4.7312 0H7.18786L15.2286 12.0813L16.6499 14.2133Z" fill="#FDBF00"/>
<path d="M16.6498 14.2133H15.2285V12.0813L16.6498 14.2133Z" fill="#E30000"/>
<path d="M22.3351 15.3639V20.1559H8.12183V15.3639C8.12183 13.6785 9.48208 12.1829 11.1675 12.1829H19.2894C20.9748 12.1829 22.3351 13.6785 22.3351 15.3639Z" fill="#FF9F00"/>
<path d="M15.2284 16.3792C10.193 16.3792 6.09131 20.4805 6.09131 25.5163C6.09131 30.5517 10.193 34.6534 15.2284 34.6534C20.2639 34.6534 24.3655 30.5517 24.3655 25.5163C24.3655 20.4805 20.2639 16.3792 15.2284 16.3792Z" fill="#FFD400"/>
<path d="M15.2285 18.4097C11.3098 18.4097 8.12183 21.5976 8.12183 25.5163C8.12183 29.435 11.3098 32.6229 15.2285 32.6229C19.1472 32.6229 22.3351 29.435 22.3351 25.5163C22.3351 21.5976 19.1472 18.4097 15.2285 18.4097Z" fill="#FF9F00"/>
<path d="M18.2743 27.5465V29.5769H12.1829V27.5465H14.2133V23.4855H12.1829V21.4551H16.2438V27.5465H18.2743Z" fill="#FFD400"/>
</svg>
