<svg width="46" height="46" viewBox="0 0 46 46" fill="none" xmlns="http://www.w3.org/2000/svg">
<rect width="46" height="46" fill="#E5E5E5"/>
<g clip-path="url(#clip0)">
<rect x="-310" y="-107" width="375" height="812" rx="20" fill="#FEFEFE"/>
<rect width="46" height="46" rx="14" fill="#B5873A"/>
<path d="M29.8072 24.9884C31.7784 24.9884 33.375 26.5581 33.375 28.4947C33.375 30.4303 31.7784 32 29.8072 32C27.8371 32 26.2393 30.4303 26.2393 28.4947C26.2393 26.5581 27.8371 24.9884 29.8072 24.9884ZM21.0114 26.9994C21.8748 26.9994 22.5757 27.688 22.5757 28.5363C22.5757 29.3835 21.8748 30.0732 21.0114 30.0732H14.1893C13.3259 30.0732 12.625 29.3835 12.625 28.5363C12.625 27.688 13.3259 26.9994 14.1893 26.9994H21.0114ZM16.1928 13.5556C18.1641 13.5556 19.7607 15.1253 19.7607 17.0608C19.7607 18.9975 18.1641 20.5672 16.1928 20.5672C14.2227 20.5672 12.625 18.9975 12.625 17.0608C12.625 15.1253 14.2227 13.5556 16.1928 13.5556ZM31.8118 15.5251C32.6741 15.5251 33.375 16.2137 33.375 17.0608C33.375 17.9091 32.6741 18.5977 31.8118 18.5977H24.9897C24.1263 18.5977 23.4254 17.9091 23.4254 17.0608C23.4254 16.2137 24.1263 15.5251 24.9897 15.5251H31.8118Z" fill="#FEFEFE"/>
</g>
<defs>
<clipPath id="clip0">
<rect x="-310" y="-107" width="375" height="812" rx="20" fill="white"/>
</clipPath>
</defs>
</svg>
