<svg width="19" height="20" viewBox="0 0 19 20" fill="none" xmlns="http://www.w3.org/2000/svg">
<path fill-rule="evenodd" clip-rule="evenodd" d="M17.652 5.59098C18.0036 5.8738 18.2882 6.23109 18.4851 6.6371C18.6821 7.04311 18.7865 7.48774 18.791 7.93898L18.782 15.913C18.782 16.9532 18.3688 17.9507 17.6333 18.6862C16.8978 19.4218 15.9002 19.835 14.86 19.835H13.122C12.6181 19.835 12.1348 19.6348 11.7785 19.2785C11.4222 18.9222 11.222 18.4389 11.222 17.935V14.335C11.222 14.2024 11.1693 14.0752 11.0756 13.9814C10.9818 13.8877 10.8546 13.835 10.722 13.835H8.1C8.03323 13.835 7.96713 13.8483 7.90561 13.8742C7.84408 13.9002 7.78837 13.9382 7.74177 13.986C7.69517 14.0338 7.65861 14.0905 7.63426 14.1526C7.60991 14.2148 7.59826 14.2812 7.6 14.348V15.722C7.60376 15.8271 7.5863 15.9319 7.54867 16.0301C7.51104 16.1283 7.454 16.2179 7.38097 16.2936C7.30794 16.3693 7.2204 16.4295 7.12359 16.4706C7.02678 16.5118 6.92268 16.533 6.8175 16.533C6.71232 16.533 6.60822 16.5118 6.51141 16.4706C6.4146 16.4295 6.32706 16.3693 6.25403 16.2936C6.181 16.2179 6.12396 16.1283 6.08633 16.0301C6.0487 15.9319 6.03124 15.8271 6.035 15.722V14.348C6.035 13.7969 6.25393 13.2683 6.64363 12.8786C7.03333 12.4889 7.56188 12.27 8.113 12.27H10.722C11.2717 12.2721 11.7982 12.492 12.1862 12.8814C12.5742 13.2709 12.792 13.7982 12.792 14.348V17.939C12.7919 17.9824 12.8003 18.0254 12.8168 18.0656C12.8334 18.1057 12.8576 18.1422 12.8883 18.173C12.919 18.2037 12.9554 18.2281 12.9955 18.2448C13.0356 18.2614 13.0786 18.27 13.122 18.27H14.9C15.5227 18.27 16.12 18.0226 16.5603 17.5823C17.0006 17.1419 17.248 16.5447 17.248 15.922V7.95698C17.2448 7.7392 17.1933 7.52484 17.0971 7.32942C17.001 7.13399 16.8626 6.96238 16.692 6.82698L10.683 2.03598C10.3156 1.7334 9.85445 1.56796 9.3785 1.56796C8.90255 1.56796 8.4414 1.7334 8.074 2.03598L6.143 3.47898C5.97028 3.59123 5.76092 3.63254 5.55851 3.59429C5.3561 3.55605 5.17624 3.4412 5.05639 3.27367C4.93654 3.10613 4.88593 2.89882 4.9151 2.6949C4.94428 2.49099 5.05098 2.30619 5.213 2.17898L7.113 0.795979C7.75396 0.280786 8.55165 -6.10352e-05 9.374 -6.10352e-05C10.1963 -6.10352e-05 10.994 0.280786 11.635 0.795979L17.652 5.59098ZM3.922 18.261H7.922V18.278C8.12469 18.2852 8.31666 18.3708 8.45749 18.5168C8.59832 18.6627 8.67702 18.8577 8.67702 19.0605C8.67702 19.2633 8.59832 19.4582 8.45749 19.6042C8.31666 19.7501 8.12469 19.8357 7.922 19.843H3.922C2.88264 19.8409 1.88644 19.4271 1.15141 18.6923C0.416382 17.9574 0.00237806 16.9613 0 15.922V7.95698C0.00680796 7.50257 0.11588 7.05552 0.319122 6.64904C0.522364 6.24256 0.814555 5.88707 1.174 5.60898L1.896 5.06998C2.06044 4.99533 2.24562 4.97981 2.42019 5.02606C2.59475 5.07231 2.74797 5.17747 2.85388 5.32375C2.95979 5.47002 3.01188 5.6484 3.00133 5.82868C2.99078 6.00896 2.91825 6.18005 2.796 6.31298L2.096 6.83498C1.93114 6.972 1.79827 7.14344 1.70671 7.33727C1.61516 7.5311 1.56713 7.74262 1.566 7.95698V15.913C1.57047 16.5357 1.82038 17.1315 2.26148 17.5711C2.70258 18.0107 3.29926 18.2586 3.922 18.261Z" fill="#8D9295"/>
</svg>
