<svg width="19" height="20" viewBox="0 0 19 20" fill="none" xmlns="http://www.w3.org/2000/svg">
<path fill-rule="evenodd" clip-rule="evenodd" d="M17.652 5.59104C18.0036 5.87387 18.2882 6.23115 18.4851 6.63716C18.6821 7.04317 18.7865 7.4878 18.791 7.93904L18.782 15.913C18.782 16.9532 18.3688 17.9508 17.6333 18.6863C16.8978 19.4218 15.9002 19.835 14.86 19.835H13.122C12.6181 19.835 12.1348 19.6349 11.7785 19.2785C11.4222 18.9222 11.222 18.439 11.222 17.935V14.335C11.222 14.2024 11.1693 14.0753 11.0756 13.9815C10.9818 13.8877 10.8546 13.835 10.722 13.835H8.1C8.03323 13.835 7.96713 13.8484 7.90561 13.8743C7.84408 13.9002 7.78837 13.9382 7.74177 13.986C7.69517 14.0339 7.65861 14.0905 7.63426 14.1527C7.60991 14.2149 7.59826 14.2813 7.6 14.348V15.722C7.60376 15.8272 7.5863 15.9319 7.54867 16.0302C7.51104 16.1284 7.454 16.218 7.38097 16.2937C7.30794 16.3694 7.2204 16.4296 7.12359 16.4707C7.02678 16.5118 6.92268 16.533 6.8175 16.533C6.71232 16.533 6.60822 16.5118 6.51141 16.4707C6.4146 16.4296 6.32706 16.3694 6.25403 16.2937C6.181 16.218 6.12396 16.1284 6.08633 16.0302C6.0487 15.9319 6.03124 15.8272 6.035 15.722V14.348C6.035 13.7969 6.25393 13.2684 6.64363 12.8787C7.03333 12.489 7.56188 12.27 8.113 12.27H10.722C11.2717 12.2722 11.7982 12.492 12.1862 12.8815C12.5742 13.271 12.792 13.7983 12.792 14.348V17.939C12.7919 17.9825 12.8003 18.0255 12.8168 18.0656C12.8334 18.1058 12.8576 18.1423 12.8883 18.173C12.919 18.2038 12.9554 18.2282 12.9955 18.2448C13.0356 18.2615 13.0786 18.27 13.122 18.27H14.9C15.5227 18.27 16.12 18.0227 16.5603 17.5823C17.0006 17.142 17.248 16.5448 17.248 15.922V7.95704C17.2448 7.73926 17.1933 7.52491 17.0971 7.32948C17.001 7.13405 16.8626 6.96244 16.692 6.82704L10.683 2.03604C10.3156 1.73346 9.85445 1.56802 9.3785 1.56802C8.90255 1.56802 8.4414 1.73346 8.074 2.03604L6.143 3.47904C5.97028 3.59129 5.76092 3.6326 5.55851 3.59435C5.3561 3.55611 5.17624 3.44126 5.05639 3.27373C4.93654 3.10619 4.88593 2.89888 4.9151 2.69497C4.94428 2.49105 5.05098 2.30625 5.213 2.17904L7.113 0.79604C7.75396 0.280847 8.55165 0 9.374 0C10.1963 0 10.994 0.280847 11.635 0.79604L17.652 5.59104ZM3.922 18.261H7.922V18.278C8.12469 18.2853 8.31666 18.3709 8.45749 18.5169C8.59832 18.6628 8.67702 18.8577 8.67702 19.0605C8.67702 19.2634 8.59832 19.4583 8.45749 19.6042C8.31666 19.7502 8.12469 19.8358 7.922 19.843H3.922C2.88264 19.8409 1.88644 19.4272 1.15141 18.6923C0.416382 17.9575 0.00237806 16.9614 0 15.922V7.95704C0.00680796 7.50263 0.11588 7.05558 0.319122 6.6491C0.522364 6.24262 0.814555 5.88713 1.174 5.60904L1.896 5.07004C2.06044 4.99539 2.24562 4.97987 2.42019 5.02612C2.59475 5.07237 2.74797 5.17754 2.85388 5.32381C2.95979 5.47008 3.01188 5.64846 3.00133 5.82874C2.99078 6.00902 2.91825 6.18011 2.796 6.31304L2.096 6.83504C1.93114 6.97206 1.79827 7.1435 1.70671 7.33733C1.61516 7.53116 1.56713 7.74268 1.566 7.95704V15.913C1.57047 16.5358 1.82038 17.1316 2.26148 17.5712C2.70258 18.0108 3.29926 18.2587 3.922 18.261Z" fill="#B5873A"/>
</svg>
