<svg width="60" height="60" viewBox="0 0 60 60" fill="none" xmlns="http://www.w3.org/2000/svg">
<g filter="url(#filter0_d)">
<rect x="15" y="9" width="30" height="30" rx="15" fill="white"/>
</g>
<path d="M26.7853 17.0001C27.2654 17.0148 27.7302 17.0988 28.1805 17.2524H28.2255C28.256 17.2669 28.2788 17.283 28.2941 17.2975C28.4625 17.3518 28.6217 17.4129 28.7741 17.497L29.0637 17.6269C29.178 17.688 29.3151 17.8019 29.3913 17.8485C29.4675 17.8936 29.5514 17.9402 29.6199 17.9929C30.4665 17.3441 31.4944 16.9926 32.5536 17.0001C33.0344 17.0001 33.5145 17.0683 33.9709 17.2219C36.7834 18.1389 37.7969 21.2339 36.9503 23.9392C36.4702 25.3216 35.6854 26.5833 34.6575 27.6142C33.1861 29.0432 31.5714 30.3118 29.8333 31.4046L29.6428 31.52L29.4447 31.397C27.7005 30.3118 26.0767 29.0432 24.5915 27.6065C23.5705 26.5756 22.7849 25.3216 22.2972 23.9392C21.4361 21.2339 22.4496 18.1389 25.2926 17.2058C25.5136 17.1294 25.7414 17.0759 25.97 17.0461H26.0614C26.2755 17.0148 26.4881 17.0001 26.7015 17.0001H26.7853ZM33.5747 19.4151C33.2623 19.3074 32.9194 19.4762 32.8051 19.7972C32.6984 20.1182 32.866 20.4697 33.1861 20.5836C33.6745 20.767 34.0014 21.2492 34.0014 21.7834V21.807C33.9869 21.982 34.0395 22.1509 34.1462 22.2808C34.2528 22.4108 34.4129 22.4864 34.5805 22.5025C34.8929 22.4941 35.1596 22.2426 35.1825 21.9209V21.83C35.2053 20.7593 34.5584 19.7896 33.5747 19.4151Z" fill="#FF3D00"/>
<defs>
<filter id="filter0_d" x="0" y="0" width="60" height="60" filterUnits="userSpaceOnUse" color-interpolation-filters="sRGB">
<feFlood flood-opacity="0" result="BackgroundImageFix"/>
<feColorMatrix in="SourceAlpha" type="matrix" values="0 0 0 0 0 0 0 0 0 0 0 0 0 0 0 0 0 0 127 0" result="hardAlpha"/>
<feOffset dy="6"/>
<feGaussianBlur stdDeviation="7.5"/>
<feColorMatrix type="matrix" values="0 0 0 0 0 0 0 0 0 0 0 0 0 0 0 0 0 0 0.099 0"/>
<feBlend mode="normal" in2="BackgroundImageFix" result="effect1_dropShadow"/>
<feBlend mode="normal" in="SourceGraphic" in2="effect1_dropShadow" result="shape"/>
</filter>
</defs>
</svg>
