<svg width="23" height="24" viewBox="0 0 27 26" fill="none" xmlns="http://www.w3.org/2000/svg">
<path fill-rule="evenodd" clip-rule="evenodd" d="M13.3408 1.941C15.439 0.614445 18.2263 0.247965 20.6343 1.01964C25.8721 2.7088 27.498 8.41892 26.0437 12.9625C23.7997 20.0985 14.2157 25.4215 13.8092 25.6448C13.6647 25.7248 13.5047 25.7648 13.3447 25.7648C13.1847 25.7648 13.0259 25.7261 12.8814 25.6474C12.4775 25.4267 2.96321 20.1824 0.644317 12.9638C0.643027 12.9638 0.643027 12.9625 0.643027 12.9625C-0.812571 8.41763 0.808201 2.70622 6.04087 1.01964C8.49783 0.224737 11.1755 0.574442 13.3408 1.941ZM6.63446 2.86236C2.40058 4.22763 1.33727 8.78153 2.48704 12.3728C4.29622 18.0016 11.4439 22.5529 13.3434 23.6795C15.2493 22.5413 22.4486 17.9397 24.1997 12.3779C25.3495 8.78282 24.2823 4.22892 20.042 2.86236C17.9876 2.20296 15.5913 2.60428 13.937 3.88438C13.5911 4.1502 13.1111 4.15537 12.7627 3.89212C11.0103 2.5746 8.72108 2.18876 6.63446 2.86236ZM18.8032 5.42501C20.562 5.99409 21.7944 7.55163 21.9453 9.39307C21.9879 9.92601 21.5918 10.3931 21.0588 10.4357C21.0317 10.4383 21.0059 10.4396 20.9788 10.4396C20.4794 10.4396 20.0562 10.0563 20.0149 9.5505C19.9297 8.48977 19.22 7.59422 18.2096 7.26774C17.6998 7.10256 17.4211 6.55672 17.585 6.04958C17.7515 5.54115 18.2921 5.265 18.8032 5.42501Z" fill="#FF3D00"/>
</svg>
