<svg width="11" height="13" viewBox="0 0 11 13" fill="none" xmlns="http://www.w3.org/2000/svg">
<path d="M5.26905 12.954C4.12305 12.954 7.80856e-06 9.40802 7.80856e-06 5.80902C-0.00239666 4.40717 0.550589 3.06147 1.53809 2.06647C2.5256 1.07147 3.86722 0.508197 5.26905 0.5C6.67088 0.508197 8.01226 1.07147 8.99976 2.06647C9.98727 3.06147 10.5405 4.40717 10.5381 5.80902C10.5381 9.40802 6.41505 12.954 5.26905 12.954ZM5.26905 3.69397C4.7187 3.69476 4.19116 3.91376 3.80201 4.30292C3.41286 4.69207 3.19392 5.21967 3.19312 5.77002C3.19392 6.32027 3.41283 6.8477 3.80201 7.23669C4.19119 7.62569 4.7188 7.84444 5.26905 7.84497C5.81913 7.84418 6.34639 7.62536 6.73536 7.23639C7.12433 6.84742 7.34321 6.3201 7.344 5.77002C7.34347 5.21994 7.12487 4.6925 6.73609 4.30334C6.34731 3.91419 5.82011 3.69503 5.27003 3.69397H5.26905Z" fill="#B5873A"/>
</svg>
