<svg width="18" height="22" viewBox="0 0 18 22" fill="none" xmlns="http://www.w3.org/2000/svg">
<path d="M9.03526 0C13.9973 0.0194995 18.0194 4.06797 17.9999 9.02363V9.12206C17.9329 12.6635 15.8038 15.6024 14.0299 17.4437C13.525 17.9702 12.9876 18.4753 12.4335 18.947C12.1016 19.2302 11.6032 19.1912 11.3196 18.8597C11.0361 18.5273 11.0761 18.0296 11.408 17.7464C11.9212 17.3091 12.4205 16.8392 12.89 16.3499C14.4687 14.7119 16.3616 12.1222 16.4193 9.09327C16.4351 4.93245 13.1206 1.59432 9.02875 1.5776H8.99993C4.92207 1.5776 1.59637 4.88324 1.58057 8.95863C1.6503 10.9717 2.33087 12.8855 3.54977 14.4909C4.97228 16.3852 7.13021 18.3908 9.18123 19.7261C9.54755 19.9638 9.65075 20.4522 9.41181 20.8181C9.26119 21.0502 9.00737 21.1765 8.7489 21.1765C8.60107 21.1765 8.45231 21.1356 8.31843 21.0483C6.12237 19.6193 3.81102 17.4706 2.28717 15.4418C0.873031 13.5782 0.0818175 11.3543 0 9.01342C0.0195246 4.00854 4.05369 0 8.99993 0H9.03526ZM8.99714 5.70008C10.8855 5.70008 12.4223 7.23404 12.4223 9.12085C12.4223 11.0067 10.8855 12.5407 8.99714 12.5407C7.10883 12.5407 5.57196 11.0067 5.57196 9.12085C5.57196 8.68443 5.92619 8.33158 6.36224 8.33158C6.79829 8.33158 7.15253 8.68443 7.15253 9.12085C7.15253 10.1358 7.98 10.9631 8.99714 10.9631C10.0143 10.9631 10.8418 10.1358 10.8418 9.12085C10.8418 8.10502 10.0143 7.27768 8.99714 7.27768C8.56109 7.27768 8.20686 6.92483 8.20686 6.48934C8.20686 6.05293 8.56109 5.70008 8.99714 5.70008Z" fill="#8D9295"/>
</svg>
