<svg width="22" height="22" viewBox="0 0 22 22" fill="none" xmlns="http://www.w3.org/2000/svg">
<path d="M2.99562 15.499C3.20779 15.499 3.41128 15.5833 3.56131 15.7333C3.71134 15.8833 3.79562 16.0868 3.79562 16.299C3.79589 16.7285 3.96665 17.1404 4.2704 17.4442C4.57415 17.748 4.98605 17.9187 5.41562 17.919H6.51562C6.93814 17.9185 7.35663 18.0012 7.74715 18.1625C8.13768 18.3238 8.4926 18.5605 8.79162 18.859L9.56462 19.634C9.7152 19.7861 9.89448 19.9067 10.0921 19.9889C10.2897 20.0712 10.5016 20.1133 10.7156 20.113C10.9301 20.1184 11.1433 20.0786 11.3415 19.9963C11.5396 19.9139 11.7182 19.7908 11.8656 19.635C11.9402 19.5601 12.0288 19.5007 12.1264 19.4601C12.2239 19.4195 12.3285 19.3985 12.4342 19.3983C12.5399 19.3981 12.6446 19.4187 12.7423 19.459C12.84 19.4993 12.9288 19.5584 13.0036 19.633C13.0785 19.7076 13.1379 19.7962 13.1785 19.8937C13.2191 19.9913 13.2401 20.0959 13.2403 20.2016C13.2405 20.3072 13.2199 20.4119 13.1796 20.5096C13.1393 20.6073 13.0802 20.6961 13.0056 20.771C12.401 21.3768 11.581 21.7182 10.7251 21.7204C9.86924 21.7227 9.04739 21.3856 8.43962 20.783L7.65662 20C7.35323 19.6981 6.9426 19.5288 6.51462 19.529H5.42062C4.56483 19.5285 3.74418 19.1885 3.13866 18.5838C2.53315 17.979 2.19221 17.1588 2.19062 16.303C2.19009 16.1972 2.21056 16.0923 2.25084 15.9944C2.29112 15.8966 2.35041 15.8077 2.42528 15.7329C2.50015 15.6581 2.58911 15.599 2.68701 15.5588C2.78491 15.5187 2.88981 15.4983 2.99562 15.499ZM16.0246 2.46498C16.8809 2.46604 17.7017 2.80671 18.3071 3.41225C18.9124 4.0178 19.2528 4.83875 19.2536 5.69498V6.79498C19.2538 7.22308 19.4235 7.63369 19.7256 7.93698L20.4956 8.70698C21.1027 9.31109 21.445 10.1316 21.4472 10.988C21.4495 11.8444 21.1115 12.6667 20.5076 13.274L19.7246 14.057C19.4247 14.3612 19.2556 14.7707 19.2536 15.198V16.298C19.2528 17.1542 18.9124 17.9752 18.3071 18.5807C17.7017 19.1862 16.8809 19.5269 16.0246 19.528C15.8113 19.528 15.6066 19.4432 15.4558 19.2923C15.3049 19.1415 15.2201 18.9368 15.2201 18.7235C15.2201 18.5101 15.3049 18.3055 15.4558 18.1546C15.6066 18.0037 15.8113 17.919 16.0246 17.919C16.4543 17.9184 16.8662 17.7475 17.1699 17.4436C17.4736 17.1396 17.6444 16.7276 17.6446 16.298V15.198C17.6436 14.7754 17.7261 14.3568 17.8875 13.9662C18.0488 13.5756 18.2857 13.2207 18.5846 12.922L19.3566 12.149C19.5084 11.9984 19.6289 11.8192 19.7111 11.6219C19.7933 11.4245 19.8356 11.2128 19.8356 10.999C19.8356 10.7852 19.7933 10.5735 19.7111 10.3761C19.6289 10.1787 19.5084 9.99957 19.3566 9.84898L18.5906 9.07598C18.2917 8.77697 18.0546 8.42196 17.893 8.03125C17.7313 7.64054 17.6483 7.2218 17.6486 6.79898V5.69898C17.6495 5.48527 17.6082 5.27348 17.527 5.0758C17.4457 4.87813 17.3262 4.69847 17.1753 4.54717C17.0243 4.39586 16.845 4.2759 16.6475 4.19417C16.45 4.11245 16.2383 4.07058 16.0246 4.07098C15.8113 4.07098 15.6066 3.98622 15.4558 3.83535C15.3049 3.68447 15.2201 3.47985 15.2201 3.26648C15.2201 3.05311 15.3049 2.84848 15.4558 2.69761C15.6066 2.54674 15.8113 2.46198 16.0246 2.46198V2.46498ZM13.4786 12.827C13.6628 12.827 13.8428 12.8816 13.9959 12.9839C14.149 13.0862 14.2683 13.2316 14.3388 13.4017C14.4092 13.5718 14.4277 13.759 14.3917 13.9396C14.3558 14.1202 14.2671 14.2861 14.1369 14.4163C14.0067 14.5465 13.8408 14.6352 13.6603 14.6711C13.4797 14.707 13.2925 14.6886 13.1223 14.6181C12.9522 14.5476 12.8068 14.4283 12.7045 14.2752C12.6022 14.1221 12.5476 13.9421 12.5476 13.758C12.5479 13.5111 12.6461 13.2745 12.8206 13.1C12.9951 12.9254 13.2318 12.8272 13.4786 12.827ZM12.9096 7.67098C13.0608 7.5202 13.2657 7.43566 13.4792 7.43594C13.6927 7.43622 13.8973 7.52131 14.0481 7.67248C14.1989 7.82365 14.2834 8.02853 14.2832 8.24204C14.2829 8.45555 14.1978 8.6602 14.0466 8.81098L8.53562 14.325C8.4609 14.3997 8.37219 14.459 8.27456 14.4994C8.17693 14.5399 8.07229 14.5607 7.96662 14.5607C7.86095 14.5607 7.75631 14.5399 7.65868 14.4994C7.56105 14.459 7.47234 14.3997 7.39762 14.325C7.3229 14.2503 7.26363 14.1615 7.22319 14.0639C7.18275 13.9663 7.16193 13.8617 7.16193 13.756C7.16193 13.6503 7.18275 13.5457 7.22319 13.448C7.26363 13.3504 7.3229 13.2617 7.39762 13.187L12.9096 7.67098ZM8.43462 1.22298C9.01872 0.63842 9.80482 0.300216 10.6309 0.278076C11.457 0.255936 12.26 0.551547 12.8746 1.10398C12.9202 1.13642 12.9633 1.17218 13.0036 1.21098C13.147 1.36147 13.2275 1.56109 13.2286 1.76898C13.2306 1.92631 13.1861 2.08073 13.1008 2.21292C13.0155 2.34511 12.893 2.44921 12.7489 2.51218C12.6047 2.57515 12.4451 2.5942 12.2901 2.56695C12.1352 2.5397 11.9917 2.46736 11.8776 2.35898L11.8566 2.33898C11.548 2.04474 11.1369 1.88227 10.7106 1.886C10.2842 1.88973 9.87603 2.05938 9.57262 2.35898L8.80062 3.13098C8.50268 3.43067 8.1481 3.66811 7.75754 3.82949C7.36697 3.99086 6.94821 4.07295 6.52562 4.07098H5.42562C4.99655 4.07256 4.58552 4.24378 4.28221 4.54727C3.9789 4.85077 3.80794 5.26191 3.80662 5.69098V6.79098C3.80827 7.21498 3.72527 7.63504 3.56248 8.02655C3.3997 8.41806 3.1604 8.77314 2.85862 9.07098L2.08662 9.84398C1.78269 10.1506 1.61217 10.5648 1.61217 10.9965C1.61217 11.4282 1.78269 11.8424 2.08662 12.149C2.236 12.3007 2.31973 12.5051 2.31973 12.718C2.31973 12.9309 2.236 13.1353 2.08662 13.287C1.93457 13.4355 1.73114 13.5196 1.51862 13.522C1.41313 13.5222 1.30863 13.5015 1.21115 13.4612C1.11367 13.4209 1.02513 13.3617 0.950621 13.287C0.34394 12.6818 0.00207154 11.8607 9.38327e-06 11.0038C-0.00205277 10.1468 0.33586 9.32408 0.939621 8.71598L1.72262 7.93298C2.02211 7.63192 2.19034 7.22463 2.19062 6.79998V5.69998C2.19142 4.84349 2.53214 4.02234 3.13796 3.4169C3.74377 2.81146 4.56513 2.47124 5.42162 2.47098H6.52162C6.73292 2.47128 6.94218 2.42972 7.13733 2.34871C7.33249 2.2677 7.50966 2.14883 7.65862 1.99898L8.43462 1.22298ZM7.95662 7.32298C8.14076 7.32298 8.32076 7.37758 8.47386 7.47988C8.62696 7.58218 8.74629 7.72758 8.81675 7.8977C8.88722 8.06782 8.90566 8.25501 8.86973 8.43561C8.83381 8.61621 8.74514 8.78209 8.61494 8.9123C8.48474 9.0425 8.31885 9.13117 8.13825 9.16709C7.95765 9.20301 7.77046 9.18458 7.60034 9.11411C7.43022 9.04365 7.28482 8.92432 7.18252 8.77122C7.08022 8.61811 7.02562 8.43811 7.02562 8.25398C7.02694 8.00793 7.12561 7.77241 7.30007 7.59889C7.47452 7.42538 7.71057 7.32798 7.95662 7.32798V7.32298Z" fill="#B5873A"/>
</svg>
