<svg width="20" height="21" viewBox="0 0 20 21" fill="none" xmlns="http://www.w3.org/2000/svg">
<path d="M19.7551 19.606L16.3171 16.245L16.2371 16.122C16.0856 15.9727 15.8814 15.889 15.6686 15.889C15.4559 15.889 15.2517 15.9727 15.1001 16.122C13.6734 17.4198 11.8309 18.1668 9.90324 18.2291C7.97556 18.2914 6.08873 17.6649 4.58113 16.462C3.08987 15.2815 2.08981 13.5895 1.77464 11.7138C1.45947 9.83806 1.85162 7.91214 2.87514 6.30902C3.92467 4.69362 5.51711 3.50666 7.36502 2.96239C9.21293 2.41812 11.1945 2.55241 12.9521 3.34102C14.7006 4.09993 16.1077 5.47727 16.9037 7.2092C17.6997 8.94112 17.8288 10.9059 17.2661 12.727C17.2245 12.8602 17.2195 13.0021 17.2515 13.1379C17.2835 13.2737 17.3514 13.3984 17.4481 13.499C17.5462 13.6011 17.669 13.6762 17.8046 13.7168C17.9402 13.7575 18.0841 13.7624 18.2221 13.731C18.3598 13.7012 18.4871 13.6355 18.5912 13.5407C18.6953 13.4459 18.7726 13.3253 18.8151 13.191C19.4884 11.0284 19.3524 8.69476 18.4325 6.62498C17.5126 4.5552 15.8715 2.89047 13.8151 1.94102C11.7463 0.957732 9.39745 0.733895 7.18016 1.30874C4.96287 1.88359 3.01861 3.22044 1.68812 5.08502C0.386683 6.93303 -0.193485 9.19341 0.0570516 11.4398C0.307588 13.6861 1.37151 15.7632 3.04813 17.279C4.74646 18.8192 6.93152 19.7144 9.22229 19.8085C11.5131 19.9026 13.7642 19.1897 15.5831 17.794L18.6271 20.77C18.7796 20.9171 18.9832 20.9994 19.1951 20.9994C19.407 20.9994 19.6107 20.9171 19.7631 20.77C19.8379 20.6972 19.8973 20.6101 19.9378 20.5139C19.9784 20.4177 19.9993 20.3144 19.9993 20.21C19.9993 20.1056 19.9784 20.0023 19.9378 19.9061C19.8973 19.81 19.8379 19.7229 19.7631 19.65L19.7551 19.606Z" fill="#8D9295"/>
</svg>
