<svg width="31" height="35" viewBox="0 0 31 35" fill="none" xmlns="http://www.w3.org/2000/svg">
<path d="M18.5409 0H23.2792L22.807 2.03047L25.7195 0H30.457L20.9817 14.2133H16.2434L17.0646 12.1828L13.8032 14.2133H9.06567L18.5409 0Z" fill="#00EED0"/>
<path d="M23.2795 0H25.7198L16.2437 14.2133H13.8035L23.2795 0Z" fill="#00A5FF"/>
<path d="M21.4011 14.2133H16.6498L15.2285 13.3199L13.4011 12.1828L14.2133 14.2133H9.48212L0 0H4.73115L7.65497 2.03047L7.1878 0H11.9189L15.2285 4.95429L21.4011 14.2133Z" fill="#00EED0"/>
<path d="M16.6501 14.2133H14.2136L4.73145 0H7.1881L15.2288 12.0813L16.6501 14.2133Z" fill="#00A5FF"/>
<path d="M16.6498 14.2133H15.2285V12.0813L16.6498 14.2133Z" fill="#E30000"/>
<path d="M22.3353 15.3639V20.1559H8.12207V15.3639C8.12207 13.6785 9.48232 12.1829 11.1678 12.1829H19.2896C20.9751 12.1829 22.3353 13.6785 22.3353 15.3639Z" fill="#EEEFFF"/>
<path d="M15.2287 16.3792C10.1932 16.3792 6.09155 20.4805 6.09155 25.5163C6.09155 30.5517 10.1932 34.6534 15.2287 34.6534C20.2641 34.6534 24.3658 30.5517 24.3658 25.5163C24.3658 20.4805 20.2641 16.3792 15.2287 16.3792Z" fill="#ADACB2"/>
<path d="M15.2287 18.4097C11.31 18.4097 8.12207 21.5976 8.12207 25.5163C8.12207 29.435 11.31 32.6229 15.2287 32.6229C19.1474 32.6229 22.3353 29.435 22.3353 25.5163C22.3353 21.5976 19.1474 18.4097 15.2287 18.4097Z" fill="#EEEFFF"/>
<path d="M17.3171 27.5858H14.3324V27.47C14.3324 27.2637 14.4544 27.038 14.6989 26.7929C14.844 26.648 15.0063 26.5 15.1866 26.3505C15.3105 26.2473 15.443 26.1435 15.5835 26.0381C15.9281 25.7795 16.2714 25.4955 16.6127 25.1861C16.954 24.8767 17.2455 24.4933 17.4881 24.0375C17.7306 23.5816 17.8525 23.0959 17.8525 22.5795C17.8525 21.7881 17.5868 21.1588 17.0566 20.6917C16.5258 20.2254 15.9082 19.9922 15.2038 19.9922H15.1866C14.51 19.9959 13.9209 20.2186 13.4179 20.6618C12.911 21.1087 12.6572 21.7021 12.6572 22.4427C12.6572 23.1317 12.9176 23.4762 13.4391 23.4762C13.7148 23.4762 13.9361 23.4015 14.1038 23.2513C14.2714 23.1011 14.3549 22.9247 14.3549 22.7215C14.3549 22.377 14.435 22.1251 14.5961 21.9667C14.7505 21.8135 14.9466 21.7335 15.1865 21.7283C15.1958 21.7275 15.2051 21.7275 15.215 21.7275C15.5052 21.7275 15.7233 21.8202 15.8684 22.0055C16.0141 22.1901 16.0864 22.4031 16.0864 22.6438C16.0864 22.945 15.9625 23.2551 15.714 23.5734C15.5596 23.7707 15.3833 23.9635 15.1865 24.1519C15.0659 24.2655 14.938 24.3783 14.8021 24.4889L13.7631 25.367C13.4198 25.6577 13.1269 25.9873 12.885 26.3557C12.6425 26.7234 12.5212 27.0918 12.5212 27.4603V28.7053C12.5212 28.8773 12.6067 29.0222 12.7763 29.1426C12.946 29.2621 13.1176 29.3219 13.2912 29.3219H17.3203C17.4634 29.3219 17.588 29.233 17.6933 29.0544C17.7994 28.875 17.8524 28.671 17.8524 28.4416C17.8524 28.2115 17.7987 28.0119 17.6927 27.8415C17.5861 27.6709 17.4609 27.5858 17.3171 27.5858Z" fill="#ADACB2"/>
</svg>
