<svg width="375" height="811" viewBox="0 0 375 811" fill="none" xmlns="http://www.w3.org/2000/svg">
<path d="M325.976 785.609C329.643 784.428 333.307 783.246 336.969 782.064C336.232 782.301 333.969 777.822 333.169 778.083C329.507 779.264 325.843 780.445 322.176 781.628C322.911 781.391 325.176 785.87 325.976 785.609Z" fill="#FF7273"/>
<path d="M287.054 486.916H295.363C295.026 486.916 293.793 485.046 293.528 484.739C293.217 484.378 292.115 482.603 291.653 482.603H283.344C283.681 482.603 284.914 484.471 285.179 484.78C285.49 485.14 286.592 486.916 287.054 486.916Z" fill="#FF7273"/>
<path d="M103.453 407.657C105.014 405.875 106.575 404.092 108.137 402.307C108.178 402.257 104.516 397.934 104.499 397.952C102.938 399.734 101.377 401.517 99.816 403.301C99.775 403.347 103.438 407.675 103.453 407.657Z" fill="#FF7273"/>
<path d="M263.58 140.225C266.412 137.595 268.589 134.338 269.936 130.715C269.383 129.897 268.751 129.136 268.049 128.442C267.345 127.754 266.7 127.007 266.122 126.21C264.774 129.83 262.598 133.085 259.768 135.714C259.868 135.625 263.42 140.369 263.58 140.225Z" fill="#FF7273"/>
<path d="M64.861 699.341C66.5831 699.953 68.4467 700.048 70.2221 699.614C71.9975 699.18 73.6073 698.236 74.853 696.899C74.824 696.928 71.067 692.252 70.976 692.343C69.7302 693.68 68.1208 694.624 66.3455 695.059C64.5703 695.494 62.7067 695.4 60.984 694.79C61.555 694.99 62.474 696.59 62.901 697.09C63.384 697.648 64.184 699.103 64.861 699.341Z" fill="#FF7273"/>
<path d="M368.062 321.375C371.54 319.973 375.311 319.455 379.038 319.869C378.627 319.823 377.459 317.83 377.148 317.439C376.787 316.984 375.758 315.116 375.219 315.057C371.493 314.644 367.722 315.161 364.245 316.564C364.972 316.275 367.263 321.688 368.062 321.375Z" fill="#FF7273"/>
<path d="M183.672 811.113C187.037 811.896 190.569 811.481 193.661 809.941C193.035 810.241 190.479 804.709 189.779 805.041C186.688 806.582 183.157 806.997 179.792 806.217C180.279 806.328 181.349 808.23 181.711 808.688C182.127 809.213 183.06 810.975 183.672 811.113Z" fill="#FFC764"/>
<path d="M43.081 223.654C47.0076 223.557 50.8587 224.743 54.05 227.033C52.567 225.989 51.722 223.924 50.226 222.868C47.035 220.578 43.1837 219.391 39.257 219.489C39.59 219.481 40.884 221.304 41.148 221.589C41.457 221.933 42.618 223.663 43.081 223.654Z" fill="#FFC764"/>
<path d="M265.055 258.95C268.453 258.578 271.889 259.099 275.024 260.461C274.424 260.206 273.546 258.582 273.093 258.017C272.593 257.392 271.825 255.917 271.124 255.617C267.989 254.256 264.553 253.735 261.155 254.107C261.449 254.076 262.838 256.245 263.084 256.551C263.372 256.907 264.633 258.995 265.055 258.951" fill="#FFC764"/>
<path d="M20.758 538.285C22.1524 538.677 23.6132 538.774 25.0472 538.57C26.4813 538.367 27.8571 537.866 29.087 537.101C28.4352 536.31 27.8254 535.485 27.26 534.63C27.09 534.406 25.575 532.101 25.395 532.21C24.1656 532.976 22.79 533.477 21.356 533.681C19.922 533.885 18.4612 533.788 17.067 533.395C17.55 533.526 18.535 535.388 18.892 535.863C19.302 536.406 20.16 538.121 20.758 538.285Z" fill="#FFC764"/>
<path d="M342.947 581.92C340.75 578.597 337.515 576.094 333.747 574.802C333.642 574.768 331.902 580.63 331.884 580.624C335.653 581.915 338.888 584.418 341.084 587.742C341.306 586.746 341.627 585.774 342.042 584.842C342.162 584.461 343.166 582.247 342.942 581.921" fill="#6487FE"/>
<path d="M20.313 353.739C23.0836 352.533 25.8543 351.328 28.625 350.124C27.9741 349.499 27.3611 348.837 26.789 348.139C26.613 347.952 25.116 346.109 24.917 346.195C22.1463 347.4 19.3756 348.605 16.605 349.812C17.2556 350.435 17.868 351.096 18.439 351.792C18.617 351.981 20.112 353.823 20.313 353.739Z" fill="#6487FE"/>
<path d="M280.697 356.368C285.348 356.979 289.736 353.351 290.739 348.068C290.804 347.729 289.079 346.035 288.845 345.756C288.611 345.477 286.851 343.82 286.914 343.492C285.911 348.777 281.521 352.403 276.872 351.792C277.3 351.848 278.442 353.717 278.764 354.102C279.138 354.549 280.141 356.295 280.697 356.368Z" fill="#6487FE"/>
<path d="M134.025 743.025C134.025 738.716 128.478 738.707 128.478 743.025C128.478 747.343 134.025 747.343 134.025 743.025Z" fill="#FFC764"/>
<path d="M115.388 517.902L114.978 518.412C114.785 518.618 114.656 518.875 114.605 519.152C114.555 519.429 114.585 519.715 114.692 519.975C114.799 520.236 114.979 520.46 115.211 520.621C115.442 520.782 115.714 520.874 115.996 520.884C116.277 520.873 116.55 520.782 116.781 520.621C117.012 520.46 117.192 520.236 117.299 519.975C117.407 519.715 117.437 519.429 117.387 519.152C117.336 518.875 117.207 518.618 117.015 518.412L116.609 517.902C116.529 517.822 116.434 517.758 116.33 517.715C116.226 517.671 116.114 517.649 116 517.649C115.887 517.649 115.775 517.671 115.671 517.715C115.567 517.758 115.472 517.822 115.392 517.902" fill="#FFC764"/>
<path d="M96.121 291.195C96.121 286.885 88.721 286.878 88.721 291.195C88.721 295.512 96.121 295.512 96.121 291.195Z" fill="#FFC764"/>
<path d="M20.303 95.474C20.303 90.448 11.982 90.438 11.982 95.474C11.982 100.51 20.303 100.51 20.303 95.474Z" fill="#FFC764"/>
<path d="M261.617 13.519C261.644 13.3209 261.629 13.1193 261.571 12.9277C261.514 12.7362 261.416 12.5591 261.285 12.4084C261.154 12.2578 260.992 12.137 260.81 12.0542C260.628 11.9714 260.43 11.9286 260.23 11.9286C260.03 11.9286 259.832 11.9714 259.65 12.0542C259.468 12.137 259.306 12.2578 259.175 12.4084C259.043 12.5591 258.946 12.7362 258.889 12.9277C258.831 13.1193 258.816 13.3209 258.843 13.519C258.816 13.717 258.831 13.9186 258.889 14.1102C258.946 14.3018 259.043 14.4788 259.175 14.6295C259.306 14.7802 259.468 14.901 259.65 14.9837C259.832 15.0665 260.03 15.1093 260.23 15.1093C260.43 15.1093 260.628 15.0665 260.81 14.9837C260.992 14.901 261.154 14.7802 261.285 14.6295C261.416 14.4788 261.514 14.3018 261.571 14.1102C261.629 13.9186 261.644 13.717 261.617 13.519Z" fill="#FFC764"/>
<path d="M363.319 142.382C363.319 138.072 357.772 138.064 357.772 142.382C357.772 146.7 363.319 146.698 363.319 142.382Z" fill="#FFC764"/>
<path d="M343.249 422.379C343.1 422.946 343.009 423.526 342.979 424.111C342.995 424.887 343.217 425.644 343.623 426.305C343.731 426.533 343.902 426.726 344.115 426.86C344.329 426.995 344.576 427.067 344.828 427.067C345.08 427.067 345.327 426.995 345.541 426.86C345.754 426.726 345.925 426.533 346.033 426.305C346.44 425.644 346.663 424.887 346.679 424.111C346.65 423.526 346.559 422.945 346.409 422.378C345.914 420.005 343.742 420.001 343.249 422.379Z" fill="#FFC764"/>
<path d="M259.767 744.103C259.767 741.23 254.22 741.225 254.22 744.103C254.22 746.981 259.767 746.981 259.767 744.103Z" fill="#6487FE"/>
<path d="M18.508 617.592L19.187 617.857C19.903 618.136 20.559 617.651 20.962 616.866L21.034 616.728C21.1622 616.428 21.2283 616.105 21.2283 615.778C21.2283 615.451 21.1622 615.128 21.034 614.828L20.962 614.688C20.562 613.903 19.897 613.422 19.187 613.697L18.508 613.966C17.203 614.475 17.202 617.083 18.508 617.592Z" fill="#6487FE"/>
<path d="M142.346 71.212C142.346 66.901 136.799 66.894 136.799 71.212C136.799 75.53 142.346 75.528 142.346 71.212Z" fill="#6487FE"/>
<path d="M334.658 216.249C334.685 216.051 334.67 215.849 334.612 215.658C334.555 215.466 334.458 215.289 334.326 215.138C334.195 214.988 334.033 214.867 333.851 214.784C333.669 214.701 333.471 214.659 333.271 214.659C333.071 214.659 332.873 214.701 332.691 214.784C332.509 214.867 332.347 214.988 332.216 215.138C332.084 215.289 331.987 215.466 331.93 215.658C331.872 215.849 331.857 216.051 331.884 216.249C331.857 216.447 331.872 216.649 331.93 216.84C331.987 217.032 332.084 217.209 332.216 217.36C332.347 217.51 332.509 217.631 332.691 217.714C332.873 217.797 333.071 217.839 333.271 217.839C333.471 217.839 333.669 217.797 333.851 217.714C334.033 217.631 334.195 217.51 334.326 217.36C334.458 217.209 334.555 217.032 334.612 216.84C334.67 216.649 334.685 216.447 334.658 216.249Z" fill="#6487FE"/>
<path d="M24.465 436.772C24.465 434.617 20.765 434.614 20.765 436.772C20.765 438.93 24.465 438.93 24.465 436.772Z" fill="#FF7273"/>
<path d="M121.721 625.513C121.254 625.55 120.818 625.758 120.495 626.097C120.276 626.386 120.157 626.739 120.157 627.102C120.157 627.465 120.276 627.818 120.495 628.107C120.819 628.444 121.255 628.652 121.721 628.691C123.329 629.091 123.34 625.11 121.721 625.512" fill="#FF7273"/>
<path d="M17.552 730.493C17.5548 730.771 17.6125 731.046 17.7216 731.302C17.8307 731.558 17.9892 731.79 18.188 731.985C18.3946 732.151 18.6516 732.241 18.9165 732.241C19.1814 732.241 19.4384 732.151 19.645 731.985C20.0457 731.591 20.2744 731.055 20.281 730.493C20.608 728.517 17.221 728.505 17.552 730.493Z" fill="#FF7273"/>
<path d="M364.245 679.941C364.255 679.874 364.251 679.806 364.233 679.741C364.214 679.676 364.182 679.616 364.138 679.565C364.094 679.514 364.039 679.473 363.978 679.444C363.917 679.416 363.85 679.402 363.783 679.402C363.715 679.402 363.648 679.416 363.587 679.444C363.526 679.473 363.471 679.514 363.427 679.565C363.383 679.616 363.351 679.676 363.332 679.741C363.314 679.806 363.31 679.874 363.32 679.941C363.31 680.008 363.314 680.076 363.332 680.141C363.351 680.206 363.383 680.266 363.427 680.317C363.471 680.368 363.526 680.41 363.587 680.438C363.648 680.466 363.715 680.481 363.783 680.481C363.85 680.481 363.917 680.466 363.978 680.438C364.039 680.41 364.094 680.368 364.138 680.317C364.182 680.266 364.214 680.206 364.233 680.141C364.251 680.076 364.255 680.008 364.245 679.941Z" fill="#FF7273"/>
<path d="M217.238 166.645C217.265 166.447 217.25 166.245 217.192 166.054C217.135 165.862 217.038 165.685 216.906 165.534C216.775 165.384 216.613 165.263 216.431 165.18C216.249 165.097 216.051 165.055 215.851 165.055C215.651 165.055 215.453 165.097 215.271 165.18C215.089 165.263 214.927 165.384 214.796 165.534C214.664 165.685 214.567 165.862 214.51 166.054C214.452 166.245 214.437 166.447 214.464 166.645C214.437 166.843 214.452 167.045 214.51 167.236C214.567 167.428 214.664 167.605 214.796 167.756C214.927 167.906 215.089 168.027 215.271 168.11C215.453 168.193 215.651 168.235 215.851 168.235C216.051 168.235 216.249 168.193 216.431 168.11C216.613 168.027 216.775 167.906 216.906 167.756C217.038 167.605 217.135 167.428 217.192 167.236C217.25 167.045 217.265 166.843 217.238 166.645Z" fill="#FF7273"/>
<path d="M365.169 54.496C365.196 54.2979 365.181 54.0963 365.123 53.9048C365.066 53.7132 364.969 53.5362 364.837 53.3855C364.706 53.2348 364.544 53.114 364.362 53.0313C364.18 52.9485 363.982 52.9057 363.782 52.9057C363.582 52.9057 363.384 52.9485 363.202 53.0313C363.02 53.114 362.858 53.2348 362.727 53.3855C362.595 53.5362 362.498 53.7132 362.441 53.9048C362.383 54.0963 362.368 54.2979 362.395 54.496C362.368 54.6941 362.383 54.8957 362.441 55.0873C362.498 55.2788 362.595 55.4559 362.727 55.6066C362.858 55.7572 363.02 55.878 363.202 55.9608C363.384 56.0435 363.582 56.0864 363.782 56.0864C363.982 56.0864 364.18 56.0435 364.362 55.9608C364.544 55.878 364.706 55.7572 364.837 55.6066C364.969 55.4559 365.066 55.2788 365.123 55.0873C365.181 54.8957 365.196 54.6941 365.169 54.496Z" fill="#FF7273"/>
<path d="M232.092 23.96L232.3 24.748C232.402 25.0872 232.611 25.3843 232.896 25.5956C233.18 25.8068 233.525 25.9208 233.879 25.9208C234.234 25.9208 234.579 25.8068 234.863 25.5956C235.148 25.3843 235.357 25.0872 235.459 24.748L235.667 23.96C235.738 23.6846 235.746 23.3967 235.69 23.1179C235.634 22.839 235.516 22.5765 235.343 22.35C235.171 22.1236 234.95 21.9391 234.697 21.8104C234.443 21.6817 234.163 21.6121 233.879 21.607C233.595 21.6123 233.315 21.6819 233.062 21.8107C232.808 21.9394 232.587 22.124 232.415 22.3504C232.243 22.5769 232.125 22.8393 232.069 23.1181C232.013 23.3969 232.021 23.6847 232.092 23.96Z" fill="#FF7273"/>
<path d="M270.864 804.49C270.864 801.616 267.164 801.612 267.164 804.49C267.164 807.368 270.864 807.368 270.864 804.49Z" fill="#FF7273"/>
<path d="M106.032 794.247C106.036 794.218 106.034 794.188 106.025 794.159C106.017 794.131 106.002 794.104 105.983 794.082C105.963 794.059 105.939 794.041 105.912 794.029C105.885 794.017 105.856 794.01 105.826 794.01C105.796 794.01 105.767 794.017 105.74 794.029C105.713 794.041 105.689 794.059 105.669 794.082C105.65 794.104 105.635 794.131 105.627 794.159C105.618 794.188 105.616 794.218 105.62 794.247C105.616 794.277 105.618 794.307 105.627 794.335C105.635 794.364 105.65 794.39 105.669 794.412C105.689 794.435 105.713 794.453 105.74 794.465C105.767 794.477 105.796 794.484 105.826 794.484C105.856 794.484 105.885 794.477 105.912 794.465C105.939 794.453 105.963 794.435 105.983 794.412C106.002 794.39 106.017 794.364 106.025 794.335C106.034 794.307 106.036 794.277 106.032 794.247Z" fill="#FFC764"/>
<path d="M128.2 466.427C128.203 466.401 128.2 466.375 128.192 466.351C128.184 466.326 128.171 466.303 128.153 466.284C128.136 466.265 128.115 466.249 128.091 466.239C128.068 466.228 128.042 466.223 128.016 466.223C127.99 466.223 127.964 466.228 127.941 466.239C127.917 466.249 127.896 466.265 127.879 466.284C127.861 466.303 127.848 466.326 127.84 466.351C127.832 466.375 127.829 466.401 127.832 466.427C127.829 466.453 127.832 466.479 127.84 466.503C127.848 466.528 127.861 466.551 127.879 466.57C127.896 466.589 127.917 466.605 127.941 466.615C127.964 466.626 127.99 466.631 128.016 466.631C128.042 466.631 128.068 466.626 128.091 466.615C128.115 466.605 128.136 466.589 128.153 466.57C128.171 466.551 128.184 466.528 128.192 466.503C128.2 466.479 128.203 466.453 128.2 466.427Z" fill="#FFC764"/>
<path d="M0.661988 258.305C0.665766 258.271 0.662388 258.237 0.652075 258.205C0.641763 258.173 0.624748 258.143 0.602142 258.118C0.579536 258.092 0.55185 258.072 0.520892 258.058C0.489934 258.044 0.456402 258.037 0.422488 258.037C0.388574 258.037 0.355042 258.044 0.324084 258.058C0.293126 258.072 0.26544 258.092 0.242834 258.118C0.220229 258.143 0.203213 258.173 0.192901 258.205C0.182588 258.237 0.17921 258.271 0.182988 258.305C0.17921 258.339 0.182588 258.373 0.192901 258.405C0.203213 258.437 0.220229 258.467 0.242834 258.493C0.26544 258.518 0.293126 258.538 0.324084 258.552C0.355042 258.566 0.388574 258.573 0.422488 258.573C0.456402 258.573 0.489934 258.566 0.520892 258.552C0.55185 258.538 0.579536 258.518 0.602142 258.493C0.624748 258.467 0.641763 258.437 0.652075 258.405C0.662388 258.373 0.665766 258.339 0.661988 258.305Z" fill="#FFC764"/>
<path d="M77.433 125.666C77.4376 125.628 77.4341 125.589 77.4227 125.553C77.4114 125.516 77.3923 125.482 77.3669 125.453C77.3415 125.425 77.3102 125.402 77.2752 125.386C77.2403 125.37 77.2023 125.362 77.164 125.362C77.1256 125.362 77.0877 125.37 77.0527 125.386C77.0177 125.402 76.9865 125.425 76.9611 125.453C76.9356 125.482 76.9166 125.516 76.9052 125.553C76.8938 125.589 76.8903 125.628 76.895 125.666C76.8903 125.704 76.8938 125.743 76.9052 125.779C76.9166 125.816 76.9356 125.85 76.9611 125.878C76.9865 125.907 77.0177 125.93 77.0527 125.946C77.0877 125.962 77.1256 125.97 77.164 125.97C77.2023 125.97 77.2403 125.962 77.2752 125.946C77.3102 125.93 77.3415 125.907 77.3669 125.878C77.3923 125.85 77.4114 125.816 77.4227 125.779C77.4341 125.743 77.4376 125.704 77.433 125.666Z" fill="#FFC764"/>
<path d="M304.978 62.045C304.984 61.993 304.979 61.9403 304.963 61.8904C304.948 61.8405 304.921 61.7944 304.887 61.7553C304.852 61.7162 304.809 61.6849 304.761 61.6635C304.714 61.6421 304.662 61.631 304.609 61.631C304.557 61.631 304.505 61.6421 304.458 61.6635C304.41 61.6849 304.367 61.7162 304.332 61.7553C304.298 61.7944 304.271 61.8405 304.256 61.8904C304.24 61.9403 304.235 61.993 304.241 62.045C304.235 62.097 304.24 62.1497 304.256 62.1996C304.271 62.2495 304.298 62.2955 304.332 62.3347C304.367 62.3738 304.41 62.405 304.458 62.4265C304.505 62.4479 304.557 62.459 304.609 62.459C304.662 62.459 304.714 62.4479 304.761 62.4265C304.809 62.405 304.852 62.3738 304.887 62.3347C304.921 62.2955 304.948 62.2495 304.963 62.1996C304.979 62.1497 304.984 62.097 304.978 62.045Z" fill="#FFC764"/>
<path d="M57.778 11.35C58.94 10.4171 60.3662 9.87339 61.8544 9.79604C63.3426 9.71868 64.8175 10.1116 66.07 10.919C65.435 10.53 64.719 9.09602 64.225 8.44702C63.7177 7.55204 63.0827 6.7358 62.34 6.02402C61.0873 5.21711 59.6123 4.82517 58.1242 4.90379C56.6362 4.98241 55.2107 5.5276 54.05 6.46202C54.376 6.21302 57.383 11.646 57.778 11.35Z" fill="#FF7273"/>
<path d="M321.933 9.74401C325.763 9.06674 329.261 7.1422 331.884 4.27001C331.956 4.19101 327.953 0.0560102 327.966 0.0410099C325.343 2.91181 321.845 4.8361 318.016 5.51501C318.257 5.47101 319.732 7.41001 319.953 7.64401C320.209 7.92701 321.566 9.80801 321.933 9.74401Z" fill="#6487FE"/>
</svg>
