<svg width="11" height="11" viewBox="0 0 11 11" fill="none" xmlns="http://www.w3.org/2000/svg">
<path d="M8.451 6.656L10.824 4.792C10.8981 4.73431 10.9522 4.65492 10.9789 4.56492C11.0056 4.47492 11.0035 4.37883 10.9728 4.29011C10.9422 4.20138 10.8846 4.12446 10.808 4.0701C10.7315 4.01575 10.6399 3.9867 10.546 3.987L7.491 3.811C7.4016 3.807 7.31511 3.77797 7.24139 3.72723C7.16767 3.67649 7.10967 3.60608 7.074 3.524L5.951 0.789C5.91255 0.702993 5.85002 0.629955 5.77097 0.578705C5.69191 0.527454 5.59971 0.500183 5.5055 0.500183C5.41129 0.500183 5.31909 0.527454 5.24004 0.578705C5.16098 0.629955 5.09846 0.702993 5.06 0.789L3.937 3.513C3.90133 3.59508 3.84334 3.66549 3.76961 3.71623C3.69589 3.76697 3.60941 3.796 3.52 3.8L0.454002 3.977C0.360134 3.9767 0.268519 4.00575 0.191986 4.0601C0.115452 4.11446 0.0578315 4.19138 0.0271902 4.28011C-0.00345108 4.36883 -0.00557856 4.46492 0.0211056 4.55492C0.0477898 4.64492 0.10195 4.72432 0.176003 4.782L2.549 6.634C2.61771 6.68739 2.66954 6.75948 2.69827 6.84161C2.72701 6.92374 2.73143 7.01242 2.711 7.097L1.935 9.932C1.91418 10.0236 1.92119 10.1194 1.95514 10.2071C1.98908 10.2947 2.04842 10.3702 2.12554 10.4239C2.20266 10.4776 2.29406 10.5071 2.38804 10.5085C2.48201 10.51 2.57427 10.4833 2.653 10.432L5.234 8.851C5.31002 8.80248 5.39832 8.7767 5.4885 8.7767C5.57868 8.7767 5.66699 8.80248 5.743 8.851L8.336 10.428C8.41474 10.4793 8.507 10.506 8.60097 10.5045C8.69494 10.5031 8.78634 10.4736 8.86347 10.4199C8.94059 10.3662 8.99993 10.2907 9.03387 10.2031C9.06782 10.1154 9.07483 10.0196 9.054 9.928L8.278 7.109C8.25955 7.02485 8.2661 6.93714 8.29684 6.85666C8.32757 6.77618 8.38116 6.70643 8.451 6.656Z" fill="#FFDC68"/>
</svg>
