<svg width="31" height="35" viewBox="0 0 31 35" fill="none" xmlns="http://www.w3.org/2000/svg">
<path d="M18.541 0H23.2793L22.8071 2.03047L25.7195 0H30.457L20.9818 14.2133H16.2435L17.0646 12.1828L13.8032 14.2133H9.06567L18.541 0Z" fill="#9F7953"/>
<path d="M23.2793 0H25.7196L16.2435 14.2133H13.8032L23.2793 0Z" fill="#A5896F"/>
<path d="M21.4012 14.2133H16.6499L15.2286 13.32L13.4011 12.1828L14.2133 14.2133H9.48216L0 0H4.73117L7.655 2.03047L7.18783 0H11.919L15.2286 4.95431L21.4012 14.2133Z" fill="#9F7953"/>
<path d="M16.6499 14.2133H14.2134L4.7312 0H7.18786L15.2286 12.0813L16.6499 14.2133Z" fill="#A5896F"/>
<path d="M16.6498 14.2133H15.2285V12.0813L16.6498 14.2133Z" fill="#E30000"/>
<path d="M22.3352 15.3639V20.1559H8.12183V15.3639C8.12183 13.6785 9.48209 12.1829 11.1675 12.1829H19.2894C20.9749 12.1829 22.3352 13.6785 22.3352 15.3639Z" fill="#E47500"/>
<path d="M15.2284 16.3792C10.193 16.3792 6.09131 20.4806 6.09131 25.5163C6.09131 30.5518 10.193 34.6534 15.2284 34.6534C20.2639 34.6534 24.3656 30.5518 24.3656 25.5163C24.3656 20.4806 20.2639 16.3792 15.2284 16.3792Z" fill="#E8A464"/>
<path d="M15.2285 18.4097C11.3098 18.4097 8.12183 21.5976 8.12183 25.5163C8.12183 29.435 11.3098 32.623 15.2285 32.623C19.1472 32.623 22.3352 29.435 22.3352 25.5163C22.3352 21.5976 19.1472 18.4097 15.2285 18.4097Z" fill="#E47500"/>
<path d="M17.1399 25.0264C17.4681 24.8841 17.7256 24.6247 17.9132 24.2482C18.0999 23.8716 18.1929 23.4448 18.1929 22.9682C18.1929 21.4384 17.1947 20.6683 15.1966 20.6594C15.1839 20.6587 15.172 20.6587 15.1593 20.6587C14.0983 20.6587 13.3162 20.8892 12.8132 21.3488C12.3093 21.809 12.0581 22.3345 12.0581 22.9252C12.0581 23.2454 12.1241 23.4588 12.256 23.5641C12.388 23.6701 12.6915 23.7227 13.1652 23.7227C13.538 23.7227 13.7979 23.6627 13.9433 23.5418C14.0887 23.4218 14.1619 23.2461 14.1619 23.0141C14.1619 22.7821 14.2429 22.6191 14.4042 22.5234C14.5663 22.4279 14.8175 22.3804 15.1593 22.3804C15.172 22.3804 15.1847 22.3804 15.1966 22.3811C15.8372 22.3922 16.1575 22.6917 16.1575 23.2802C16.1575 23.5218 16.1282 23.7197 16.0693 23.8739C16.0113 24.028 15.9263 24.1362 15.8142 24.1992C15.7013 24.2615 15.5941 24.303 15.4907 24.3238C15.4081 24.3408 15.3102 24.3504 15.1966 24.3534C15.1681 24.3541 15.1378 24.3549 15.1069 24.3549C14.7031 24.3549 14.5012 24.6084 14.5012 25.1146C14.5012 25.6208 14.7031 25.8743 15.1061 25.8743C15.137 25.8743 15.1673 25.8743 15.1966 25.8758C15.5749 25.8847 15.8659 25.9543 16.0708 26.0833C16.291 26.2226 16.4015 26.4902 16.4015 26.8867V27.1276C16.4015 27.5412 16.3093 27.834 16.1249 28.0074C15.9453 28.1756 15.6361 28.2623 15.1966 28.2668H15.1593C14.359 28.2668 13.9584 28.0222 13.9584 27.5323C13.9584 27.2877 13.8829 27.1173 13.7327 27.0201C13.5825 26.9231 13.2932 26.8741 12.8648 26.8741C12.4826 26.8741 12.2187 26.9245 12.0733 27.026C11.9271 27.1276 11.8547 27.3173 11.8547 27.596C11.8547 28.2119 12.1266 28.7649 12.671 29.254C13.2146 29.7431 14.0221 29.9885 15.0919 29.9885C15.1268 29.9885 15.1618 29.9885 15.1968 29.987C16.1783 29.9722 16.9715 29.7402 17.5779 29.2918C18.205 28.8278 18.5189 28.1066 18.5189 27.1275V26.8866C18.5188 25.9669 18.0594 25.3466 17.1399 25.0264Z" fill="#E8A464"/>
</svg>
