<svg width="60" height="60" viewBox="0 0 60 60" fill="none" xmlns="http://www.w3.org/2000/svg">
<g filter="url(#filter0_d)">
<rect x="15" y="9" width="30" height="30" rx="15" fill="white"/>
</g>
<path fill-rule="evenodd" clip-rule="evenodd" d="M29.6197 18.7736C30.8302 18.0083 32.4383 17.7968 33.8274 18.242C36.8493 19.2166 37.7873 22.5109 36.9483 25.1322C35.6536 29.2491 30.1244 32.3201 29.8899 32.4489C29.8065 32.495 29.7142 32.5181 29.6219 32.5181C29.5296 32.5181 29.438 32.4958 29.3546 32.4503C29.1216 32.323 23.6326 29.2975 22.2948 25.1329C22.294 25.1329 22.294 25.1322 22.294 25.1322C21.4543 22.5101 22.3893 19.2151 25.4082 18.242C26.8257 17.7834 28.3704 17.9852 29.6197 18.7736ZM25.7506 19.3052C23.308 20.0928 22.6946 22.7201 23.3579 24.7919C24.4016 28.0393 28.5253 30.6651 29.6212 31.315C30.7207 30.6584 34.8742 28.0036 35.8844 24.7949C36.5478 22.7208 35.9321 20.0936 33.4857 19.3052C32.3005 18.9247 30.918 19.1563 29.9636 19.8948C29.7641 20.0481 29.4872 20.0511 29.2861 19.8992C28.2751 19.1391 26.9544 18.9165 25.7506 19.3052ZM32.771 20.7836C33.7858 21.1119 34.4967 22.0105 34.5838 23.0729C34.6084 23.3803 34.3798 23.6498 34.0724 23.6744C34.0567 23.6759 34.0419 23.6766 34.0262 23.6766C33.7381 23.6766 33.4939 23.4555 33.4701 23.1637C33.421 22.5517 33.0115 22.0351 32.4286 21.8467C32.1345 21.7514 31.9737 21.4365 32.0682 21.1439C32.1643 20.8506 32.4762 20.6913 32.771 20.7836Z" fill="#FF3D00"/>
<defs>
<filter id="filter0_d" x="0" y="0" width="60" height="60" filterUnits="userSpaceOnUse" color-interpolation-filters="sRGB">
<feFlood flood-opacity="0" result="BackgroundImageFix"/>
<feColorMatrix in="SourceAlpha" type="matrix" values="0 0 0 0 0 0 0 0 0 0 0 0 0 0 0 0 0 0 127 0" result="hardAlpha"/>
<feOffset dy="6"/>
<feGaussianBlur stdDeviation="7.5"/>
<feColorMatrix type="matrix" values="0 0 0 0 0 0 0 0 0 0 0 0 0 0 0 0 0 0 0.099 0"/>
<feBlend mode="normal" in2="BackgroundImageFix" result="effect1_dropShadow"/>
<feBlend mode="normal" in="SourceGraphic" in2="effect1_dropShadow" result="shape"/>
</filter>
</defs>
</svg>
